<?xml version="1.0" encoding="UTF-8" standalone="no"?>
<!-- Generator: Adobe Illustrator 19.0.0, SVG Export Plug-In . SVG Version: 6.00 Build 0)  -->

<svg
   xmlns:dc="http://purl.org/dc/elements/1.1/"
   xmlns:cc="http://creativecommons.org/ns#"
   xmlns:rdf="http://www.w3.org/1999/02/22-rdf-syntax-ns#"
   xmlns:svg="http://www.w3.org/2000/svg"
   xmlns="http://www.w3.org/2000/svg"
   xmlns:xlink="http://www.w3.org/1999/xlink"
   xmlns:sodipodi="http://sodipodi.sourceforge.net/DTD/sodipodi-0.dtd"
   xmlns:inkscape="http://www.inkscape.org/namespaces/inkscape"
   version="1.1"
   id="Camada_1"
   x="0px"
   y="0px"
   viewBox="0 0 500 500"
   style="enable-background:new 0 0 500 500;"
   xml:space="preserve"
   sodipodi:docname="QuitandaLOGO.svg"
   inkscape:version="0.92.4 (33fec40, 2019-01-16)"><metadata
   id="metadata222"><rdf:RDF><cc:Work
       rdf:about=""><dc:format>image/svg+xml</dc:format><dc:type
         rdf:resource="http://purl.org/dc/dcmitype/StillImage" /><dc:title></dc:title></cc:Work></rdf:RDF></metadata><defs
   id="defs220">
	
	
	
	
	
	
	
	
	
	
</defs><sodipodi:namedview
   pagecolor="#ffffff"
   bordercolor="#666666"
   borderopacity="1"
   objecttolerance="10"
   gridtolerance="10"
   guidetolerance="10"
   inkscape:pageopacity="0"
   inkscape:pageshadow="2"
   inkscape:window-width="1440"
   inkscape:window-height="840"
   id="namedview218"
   showgrid="false"
   inkscape:pagecheckerboard="true"
   inkscape:snap-page="false"
   showguides="true"
   inkscape:snap-global="true"
   inkscape:snap-center="true"
   inkscape:snap-text-baseline="true"
   inkscape:guide-bbox="true"
   inkscape:zoom="0.68787436"
   inkscape:cx="276.16757"
   inkscape:cy="261.57521"
   inkscape:window-x="0"
   inkscape:window-y="0"
   inkscape:window-maximized="1"
   inkscape:current-layer="Camada_1"><inkscape:grid
     type="xygrid"
     id="grid382" /><sodipodi:guide
     position="-129.38409,710.88563"
     orientation="0,1"
     id="guide5212"
     inkscape:locked="false" /></sodipodi:namedview>
<style
   type="text/css"
   id="style136">
	.st0{fill:#4A6C31;}
	.st1{fill:#2B4822;}
	.st2{fill:#709342;}
	.st3{fill:#F7EACC;}
	.st4{fill:#D2AA2A;stroke:#D2AA2A;stroke-miterlimit:10;}
	.st5{font-family:'Helvetica';}
	.st6{font-size:44.6576px;}
	.st7{fill:#D2AA2A;}
	.st8{fill:#CC7C2F;}
	.st9{fill:#956E28;}
	.st10{font-family:'Helvetica-Light';}
	.st11{font-size:11.5246px;}
</style>

<g
   id="g5373"
   transform="matrix(0.96000001,0,0,0.96000001,10,21.112197)"><g
     transform="matrix(1.7667041,0,0,1.7667041,-199.80673,-210.72402)"
     id="g380"><path
       style="fill:#4a6c31"
       inkscape:connector-curvature="0"
       d="m 145.7,165.6 c 0,0 2.4,-3.4 8.7,-3 6.3,0.3 18.2,0.2 21.4,-5.5 3.3,-5.7 0.1,-25.7 13.9,-23 13.7,2.7 22.2,11.6 29.3,-4 7.1,-15.7 14.1,-13.6 20.8,-7.5 6.6,6 14.4,12.9 23.1,5.2 8.8,-7.8 16,-14.5 23,-4.2 7,10.3 8.2,18.9 22.6,13.9 14.4,-5 18.5,-7.1 21.8,7.1 3.3,14.2 3.6,18 14.6,17.7 11.1,-0.3 18.1,-0.6 19.9,6.4 1.8,7 -3.4,13.7 -1.6,22.8 1.8,9.1 19.6,5.5 24.8,15.9 5.2,10.4 -19.2,19.3 -4.5,32.1 14.6,12.7 19,15.2 -0.3,29.5 -14.9,11.1 14.4,27.4 1.7,35.7 0,0 -3.5,2.5 -10.2,4.4 -6.6,1.9 -13.7,4 -11.7,14.9 2,10.9 3.5,17.2 -2.2,20.2 -5.6,3 -22.9,-1.5 -26.8,5.5 -3.9,7 -1.7,19.8 -8.2,23.4 -6.5,3.6 -19.4,-6.4 -27.5,-4 -8.1,2.4 -7.6,14.2 -17.3,20.1 -9.7,5.9 -14.8,-11.6 -25.6,-12.2 -10.8,-0.7 -12.8,10.8 -23.3,13.2 -10.4,2.4 -12,-19.7 -22.2,-21.1 -10.2,-1.4 -19.2,8.1 -26.9,3.8 -7.7,-4.3 -2.5,-15.3 -9.7,-25 0,0 -2.8,-3.4 -13.8,-2.1 -11,1.3 -16.9,-3.4 -14.6,-13 2.4,-9.6 3.9,-18.2 -4.9,-21.4 -8.8,-3.2 -22.2,-5.5 -18,-15.9 4.3,-10.3 11.4,-15.7 6.8,-23.6 -4.7,-7.9 -18.5,-10.9 -15.2,-20.3 3.3,-9.4 15.8,-10.8 16.8,-19.6 1,-8.8 -11.2,-15.6 -9.2,-24.8 2,-9.2 19.9,-4.9 24.5,-15.2 3.2,-7.3 -5.1,-16.7 0,-26.4 z"
       class="st0"
       id="XMLID_72_" /><ellipse
       style="fill:#2b4822"
       ry="109.8"
       rx="112.9"
       cy="255.5"
       cx="254.5"
       class="st1"
       id="XMLID_71_" /><g
       id="XMLID_147_">
		<path
   style="fill:#4a6c31"
   inkscape:connector-curvature="0"
   d="m 256.4,334.2 c 0,0 6,-35.4 -25.7,-43.4 0,0 -14,28.1 25.7,43.4 z"
   class="st0"
   id="XMLID_70_" />
		<path
   style="fill:#4a6c31"
   inkscape:connector-curvature="0"
   d="m 260.3,330 c 0,0 25.6,-3.5 24.5,-25.8 0,0 -22.2,-3.3 -24.5,25.8 z"
   class="st0"
   id="XMLID_69_" />
		<path
   style="fill:#709342"
   inkscape:connector-curvature="0"
   d="m 257.9,335.5 c 0,0 -13,-30.8 -24,-39.4 0,0 12.7,14.2 22.8,39.9 2.7,7.1 1.2,-0.5 1.2,-0.5 z"
   class="st2"
   id="XMLID_68_" />
		<path
   style="fill:#709342"
   inkscape:connector-curvature="0"
   d="m 256,334.3 c 0,0 18.7,-23.7 22.5,-25 0,0 0.6,0.1 -0.6,1.1 -1.1,1 -19.9,21.8 -21.5,25 z"
   class="st2"
   id="XMLID_67_" />
	</g><g
       id="XMLID_105_">
		<ellipse
   style="fill:#f7eacc"
   ry="3.4000001"
   rx="3.5"
   cy="355.5"
   cx="254.39999"
   class="st3"
   id="XMLID_66_" />
		<path
   style="fill:#f7eacc"
   inkscape:connector-curvature="0"
   d="m 266.4,354.9 c -0.3,-1.9 1,-3.6 2.9,-3.9 1.9,-0.3 3.7,1 4,2.8 0.3,1.9 -1,3.6 -2.9,3.9 -1.9,0.4 -3.7,-0.9 -4,-2.8 z"
   class="st3"
   id="XMLID_65_" />
		<path
   style="fill:#f7eacc"
   inkscape:connector-curvature="0"
   d="m 281.7,352 c -0.6,-1.8 0.4,-3.7 2.3,-4.3 1.8,-0.6 3.8,0.4 4.4,2.2 0.6,1.8 -0.4,3.7 -2.3,4.3 -1.9,0.6 -3.8,-0.4 -4.4,-2.2 z"
   class="st3"
   id="XMLID_64_" />
		<path
   style="fill:#f7eacc"
   inkscape:connector-curvature="0"
   d="m 296.3,346.9 c -0.9,-1.7 -0.1,-3.7 1.6,-4.5 1.7,-0.8 3.8,-0.1 4.7,1.5 0.9,1.7 0.1,3.7 -1.6,4.5 -1.8,0.9 -3.8,0.2 -4.7,-1.5 z"
   class="st3"
   id="XMLID_63_" />
		<path
   style="fill:#f7eacc"
   inkscape:connector-curvature="0"
   d="m 310,339.7 c -1.1,-1.5 -0.7,-3.7 0.9,-4.7 1.6,-1.1 3.8,-0.7 4.9,0.8 1.1,1.5 0.7,3.7 -0.9,4.7 -1.7,1.1 -3.8,0.7 -4.9,-0.8 z"
   class="st3"
   id="XMLID_62_" />
		<path
   style="fill:#f7eacc"
   inkscape:connector-curvature="0"
   d="m 322.3,330.5 c -1.3,-1.4 -1.3,-3.5 0.1,-4.8 1.4,-1.3 3.6,-1.2 4.9,0.1 1.3,1.4 1.3,3.5 -0.1,4.8 -1.3,1.3 -3.5,1.3 -4.9,-0.1 z"
   class="st3"
   id="XMLID_61_" />
		<path
   style="fill:#f7eacc"
   inkscape:connector-curvature="0"
   d="m 333.1,319.7 c -1.5,-1.1 -1.8,-3.3 -0.6,-4.8 1.2,-1.5 3.4,-1.8 4.9,-0.6 1.5,1.2 1.8,3.3 0.6,4.8 -1.2,1.5 -3.3,1.7 -4.9,0.6 z"
   class="st3"
   id="XMLID_60_" />
		<path
   style="fill:#f7eacc"
   inkscape:connector-curvature="0"
   d="m 342.1,307.3 c -1.7,-0.9 -2.3,-3 -1.4,-4.6 0.9,-1.6 3.1,-2.2 4.7,-1.3 1.7,0.9 2.3,3 1.4,4.6 -0.9,1.6 -3,2.2 -4.7,1.3 z"
   class="st3"
   id="XMLID_59_" />
		<path
   style="fill:#f7eacc"
   inkscape:connector-curvature="0"
   d="m 349.1,293.8 c -1.8,-0.6 -2.7,-2.6 -2.1,-4.4 0.7,-1.8 2.7,-2.7 4.5,-2 1.8,0.6 2.7,2.6 2.1,4.4 -0.7,1.7 -2.7,2.6 -4.5,2 z"
   class="st3"
   id="XMLID_58_" />
		<path
   style="fill:#f7eacc"
   inkscape:connector-curvature="0"
   d="m 353.8,279.4 c -1.9,-0.4 -3.1,-2.2 -2.7,-4 0.4,-1.8 2.2,-3 4.1,-2.7 1.9,0.4 3.1,2.2 2.7,4 -0.4,1.9 -2.2,3.1 -4.1,2.7 z"
   class="st3"
   id="XMLID_57_" />
		<path
   style="fill:#f7eacc"
   inkscape:connector-curvature="0"
   d="m 356.3,264.5 c -1.9,-0.1 -3.4,-1.7 -3.3,-3.5 0.1,-1.9 1.7,-3.3 3.6,-3.2 1.9,0.1 3.4,1.7 3.3,3.5 -0.1,1.8 -1.7,3.3 -3.6,3.2 z"
   class="st3"
   id="XMLID_56_" />
		<path
   style="fill:#f7eacc"
   inkscape:connector-curvature="0"
   d="m 356.4,249.4 c -1.9,0.2 -3.6,-1.2 -3.8,-3 -0.2,-1.9 1.2,-3.5 3.1,-3.7 1.9,-0.2 3.6,1.2 3.8,3 0.2,1.8 -1.2,3.5 -3.1,3.7 z"
   class="st3"
   id="XMLID_55_" />
		<path
   style="fill:#f7eacc"
   inkscape:connector-curvature="0"
   d="m 354.1,234.4 c -1.9,0.5 -3.8,-0.6 -4.3,-2.4 -0.5,-1.8 0.6,-3.7 2.5,-4.1 1.9,-0.5 3.8,0.6 4.3,2.4 0.5,1.8 -0.7,3.6 -2.5,4.1 z"
   class="st3"
   id="XMLID_54_" />
		<path
   style="fill:#f7eacc"
   inkscape:connector-curvature="0"
   d="m 349.5,220 c -1.8,0.7 -3.8,0 -4.6,-1.8 -0.8,-1.7 0,-3.7 1.8,-4.5 1.8,-0.7 3.8,0 4.6,1.8 0.8,1.7 0,3.7 -1.8,4.5 z"
   class="st3"
   id="XMLID_53_" />
		<path
   style="fill:#f7eacc"
   inkscape:connector-curvature="0"
   d="m 342.7,206.3 c -1.6,1 -3.8,0.5 -4.8,-1.1 -1,-1.6 -0.5,-3.7 1.1,-4.7 1.6,-1 3.8,-0.5 4.8,1.1 1,1.6 0.6,3.7 -1.1,4.7 z"
   class="st3"
   id="XMLID_52_" />
		<path
   style="fill:#f7eacc"
   inkscape:connector-curvature="0"
   d="m 333.9,193.9 c -1.5,1.2 -3.7,1.1 -4.9,-0.3 -1.3,-1.4 -1.1,-3.6 0.3,-4.8 1.5,-1.2 3.7,-1.1 4.9,0.3 1.3,1.4 1.2,3.6 -0.3,4.8 z"
   class="st3"
   id="XMLID_51_" />
		<path
   style="fill:#f7eacc"
   inkscape:connector-curvature="0"
   d="m 323.2,182.9 c -1.2,1.4 -3.4,1.6 -4.9,0.4 -1.5,-1.2 -1.7,-3.4 -0.4,-4.8 1.2,-1.4 3.4,-1.6 4.9,-0.4 1.5,1.2 1.7,3.4 0.4,4.8 z"
   class="st3"
   id="XMLID_50_" />
		<path
   style="fill:#f7eacc"
   inkscape:connector-curvature="0"
   d="m 311,173.6 c -1,1.6 -3.2,2.1 -4.8,1.1 -1.6,-1 -2.2,-3.1 -1.2,-4.7 1,-1.6 3.2,-2.1 4.8,-1.1 1.7,1 2.2,3.1 1.2,4.7 z"
   class="st3"
   id="XMLID_49_" />
		<path
   style="fill:#f7eacc"
   inkscape:connector-curvature="0"
   d="m 297.4,166.2 c -0.7,1.7 -2.8,2.5 -4.6,1.8 -1.8,-0.7 -2.6,-2.7 -1.9,-4.4 0.7,-1.7 2.8,-2.5 4.6,-1.8 1.8,0.7 2.6,2.7 1.9,4.4 z"
   class="st3"
   id="XMLID_48_" />
		<path
   style="fill:#f7eacc"
   inkscape:connector-curvature="0"
   d="m 282.8,160.9 c -0.5,1.8 -2.4,2.9 -4.2,2.5 -1.9,-0.5 -3,-2.3 -2.5,-4.1 0.5,-1.8 2.4,-2.9 4.2,-2.5 1.9,0.5 3,2.3 2.5,4.1 z"
   class="st3"
   id="XMLID_47_" />
		<path
   style="fill:#f7eacc"
   inkscape:connector-curvature="0"
   d="m 267.6,157.9 c -0.2,1.9 -1.9,3.2 -3.8,3.1 -1.9,-0.2 -3.3,-1.8 -3.2,-3.7 0.2,-1.9 1.9,-3.2 3.8,-3.1 2,0.2 3.4,1.8 3.2,3.7 z"
   class="st3"
   id="XMLID_46_" />
		<path
   style="fill:#f7eacc"
   inkscape:connector-curvature="0"
   d="m 252.1,157.1 c 0.1,1.9 -1.4,3.5 -3.3,3.6 -1.9,0.1 -3.6,-1.3 -3.7,-3.2 -0.1,-1.9 1.4,-3.5 3.3,-3.6 1.9,-0.1 3.6,1.3 3.7,3.2 z"
   class="st3"
   id="XMLID_45_" />
		<path
   style="fill:#f7eacc"
   inkscape:connector-curvature="0"
   d="m 236.6,158.6 c 0.4,1.8 -0.8,3.6 -2.7,4 -1.9,0.4 -3.7,-0.8 -4.1,-2.6 -0.4,-1.8 0.8,-3.6 2.7,-4 1.9,-0.4 3.7,0.8 4.1,2.6 z"
   class="st3"
   id="XMLID_44_" />
		<path
   style="fill:#f7eacc"
   inkscape:connector-curvature="0"
   d="m 221.6,162.4 c 0.7,1.8 -0.2,3.7 -2,4.4 -1.8,0.7 -3.8,-0.2 -4.5,-2 -0.7,-1.8 0.2,-3.7 2,-4.4 1.8,-0.7 3.8,0.2 4.5,2 z"
   class="st3"
   id="XMLID_43_" />
		<path
   style="fill:#f7eacc"
   inkscape:connector-curvature="0"
   d="m 207.3,168.3 c 1,1.6 0.4,3.7 -1.3,4.6 -1.7,0.9 -3.8,0.4 -4.8,-1.3 -1,-1.6 -0.4,-3.7 1.3,-4.6 1.7,-0.9 3.8,-0.3 4.8,1.3 z"
   class="st3"
   id="XMLID_42_" />
		<path
   style="fill:#f7eacc"
   inkscape:connector-curvature="0"
   d="m 194.1,176.3 c 1.2,1.5 0.9,3.6 -0.6,4.8 -1.5,1.2 -3.7,0.9 -4.9,-0.6 -1.2,-1.5 -0.9,-3.6 0.6,-4.8 1.5,-1.1 3.7,-0.8 4.9,0.6 z"
   class="st3"
   id="XMLID_41_" />
		<path
   style="fill:#f7eacc"
   inkscape:connector-curvature="0"
   d="m 182.3,186.2 c 1.4,1.3 1.5,3.4 0.2,4.8 -1.3,1.4 -3.5,1.5 -4.9,0.2 -1.4,-1.3 -1.5,-3.4 -0.2,-4.8 1.3,-1.4 3.5,-1.5 4.9,-0.2 z"
   class="st3"
   id="XMLID_40_" />
		<path
   style="fill:#f7eacc"
   inkscape:connector-curvature="0"
   d="m 172.2,197.7 c 1.6,1.1 2,3.2 0.9,4.7 -1.1,1.6 -3.3,2 -4.8,0.9 -1.6,-1.1 -2,-3.2 -0.9,-4.7 1,-1.6 3.2,-2 4.8,-0.9 z"
   class="st3"
   id="XMLID_39_" />
		<path
   style="fill:#f7eacc"
   inkscape:connector-curvature="0"
   d="m 164,210.5 c 1.7,0.8 2.5,2.8 1.7,4.5 -0.8,1.7 -2.9,2.4 -4.6,1.6 -1.7,-0.8 -2.5,-2.8 -1.7,-4.5 0.8,-1.7 2.9,-2.4 4.6,-1.6 z"
   class="st3"
   id="XMLID_38_" />
		<path
   style="fill:#f7eacc"
   inkscape:connector-curvature="0"
   d="m 157.9,224.4 c 1.8,0.5 2.9,2.4 2.3,4.2 -0.6,1.8 -2.5,2.8 -4.3,2.3 -1.8,-0.5 -2.9,-2.4 -2.3,-4.2 0.5,-1.8 2.5,-2.8 4.3,-2.3 z"
   class="st3"
   id="XMLID_37_" />
		<path
   style="fill:#f7eacc"
   inkscape:connector-curvature="0"
   d="m 154,239.1 c 1.9,0.3 3.2,2 3,3.8 -0.3,1.9 -2,3.2 -3.9,2.9 -1.9,-0.3 -3.2,-2 -3,-3.8 0.3,-1.9 2,-3.2 3.9,-2.9 z"
   class="st3"
   id="XMLID_36_" />
		
			<ellipse
   style="fill:#f7eacc"
   ry="3.5"
   rx="3.4000001"
   cy="257.5"
   cx="152.60001"
   class="st3"
   transform="matrix(-0.01372336,-0.9999,0.9999,-0.01372336,-102.8335,413.5738)"
   id="XMLID_35_" />
		<path
   style="fill:#f7eacc"
   inkscape:connector-curvature="0"
   d="m 153.3,269.2 c 1.9,-0.3 3.7,0.9 4,2.8 0.3,1.8 -1,3.6 -2.9,3.9 -1.9,0.3 -3.7,-0.9 -4,-2.8 -0.2,-1.8 1,-3.6 2.9,-3.9 z"
   class="st3"
   id="XMLID_34_" />
		<path
   style="fill:#f7eacc"
   inkscape:connector-curvature="0"
   d="m 156.5,284 c 1.8,-0.6 3.8,0.4 4.4,2.2 0.6,1.8 -0.4,3.7 -2.2,4.3 -1.8,0.6 -3.8,-0.4 -4.4,-2.2 -0.6,-1.8 0.4,-3.7 2.2,-4.3 z"
   class="st3"
   id="XMLID_33_" />
		<path
   style="fill:#f7eacc"
   inkscape:connector-curvature="0"
   d="m 162,298.2 c 1.7,-0.9 3.8,-0.2 4.7,1.5 0.9,1.7 0.2,3.7 -1.5,4.6 -1.7,0.9 -3.8,0.2 -4.7,-1.5 -0.9,-1.7 -0.2,-3.8 1.5,-4.6 z"
   class="st3"
   id="XMLID_32_" />
		<path
   style="fill:#f7eacc"
   inkscape:connector-curvature="0"
   d="m 169.6,311.3 c 1.6,-1.1 3.7,-0.7 4.9,0.8 1.1,1.5 0.8,3.6 -0.8,4.7 -1.6,1.1 -3.7,0.7 -4.9,-0.8 -1.1,-1.4 -0.8,-3.6 0.8,-4.7 z"
   class="st3"
   id="XMLID_31_" />
		<path
   style="fill:#f7eacc"
   inkscape:connector-curvature="0"
   d="m 179.2,323.3 c 1.4,-1.3 3.6,-1.3 4.9,0 1.3,1.3 1.3,3.5 0,4.8 -1.4,1.3 -3.6,1.3 -4.9,0 -1.3,-1.3 -1.4,-3.5 0,-4.8 z"
   class="st3"
   id="XMLID_30_" />
		<path
   style="fill:#f7eacc"
   inkscape:connector-curvature="0"
   d="m 190.5,333.6 c 1.2,-1.5 3.3,-1.8 4.9,-0.7 1.5,1.1 1.9,3.3 0.7,4.8 -1.2,1.5 -3.3,1.8 -4.9,0.7 -1.6,-1.2 -1.9,-3.3 -0.7,-4.8 z"
   class="st3"
   id="XMLID_29_" />
		<path
   style="fill:#f7eacc"
   inkscape:connector-curvature="0"
   d="m 203.3,342.2 c 0.9,-1.7 3,-2.3 4.7,-1.4 1.7,0.9 2.3,2.9 1.4,4.6 -0.9,1.7 -3,2.3 -4.7,1.4 -1.7,-0.9 -2.3,-3 -1.4,-4.6 z"
   class="st3"
   id="XMLID_28_" />
		<path
   style="fill:#f7eacc"
   inkscape:connector-curvature="0"
   d="m 217.3,348.8 c 0.6,-1.8 2.6,-2.7 4.4,-2.1 1.8,0.6 2.8,2.6 2.1,4.3 -0.6,1.8 -2.6,2.7 -4.4,2.1 -1.8,-0.6 -2.8,-2.6 -2.1,-4.3 z"
   class="st3"
   id="XMLID_27_" />
		<path
   style="fill:#f7eacc"
   inkscape:connector-curvature="0"
   d="m 232.1,353.2 c 0.4,-1.8 2.2,-3.1 4.1,-2.7 1.9,0.3 3.1,2.1 2.8,4 -0.4,1.8 -2.2,3.1 -4.1,2.7 -1.9,-0.4 -3.1,-2.2 -2.8,-4 z"
   class="st3"
   id="XMLID_26_" />
	</g><text
       style="font-size:45.28069305px;font-family:Helvetica;fill:#d2aa2a;stroke:#d2aa2a;stroke-width:1.01395261;stroke-miterlimit:10"
       class="st4 st5 st6"
       transform="scale(1.0139527,0.98623934)"
       id="XMLID_25_"
       x="160.26408"
       y="270.60339">Quitanda</text>
<g
       id="XMLID_93_">
		<path
   style="fill:#d2aa2a"
   inkscape:connector-curvature="0"
   d="m 296.3,316.5 c 1.2,-0.9 6.6,-2.7 7.7,-2.4 0.6,0.2 -3,5.7 -4.3,6.6 -1.2,0.9 -3.8,1.4 -4.8,0.2 -0.9,-1.1 0.2,-3.5 1.4,-4.4 z"
   class="st7"
   id="XMLID_24_" />
		<path
   style="fill:#d2aa2a"
   inkscape:connector-curvature="0"
   d="m 288.9,319.6 c 0.4,-1.2 3.4,-5 4.3,-5.2 0.5,-0.1 0.6,5.5 0.2,6.7 -0.4,1.2 -2.1,2.7 -3.3,2.3 -1.2,-0.4 -1.6,-2.6 -1.2,-3.8 z"
   class="st7"
   id="XMLID_23_" />
		<path
   style="fill:#d2aa2a"
   inkscape:connector-curvature="0"
   d="m 294.7,322.4 c 1.3,0 6,1.4 6.5,2.1 0.3,0.4 -5,2.5 -6.3,2.5 -1.3,0 -3.4,-0.9 -3.4,-2.2 -0.1,-1.2 1.9,-2.3 3.2,-2.4 z"
   class="st7"
   id="XMLID_22_" />
		<path
   style="fill:#d2aa2a"
   inkscape:connector-curvature="0"
   d="m 283.1,324 c 0.4,-1.2 3.4,-5 4.3,-5.2 0.5,-0.1 0.6,5.5 0.2,6.7 -0.4,1.2 -2.1,2.7 -3.3,2.3 -1.3,-0.4 -1.6,-2.6 -1.2,-3.8 z"
   class="st7"
   id="XMLID_21_" />
		<path
   style="fill:#d2aa2a"
   inkscape:connector-curvature="0"
   d="m 288.7,326.6 c 1.3,0 6,1.4 6.5,2.1 0.3,0.4 -5,2.5 -6.3,2.5 -1.3,0 -3.4,-0.9 -3.4,-2.2 -0.1,-1.3 1.9,-2.4 3.2,-2.4 z"
   class="st7"
   id="XMLID_20_" />
		<path
   style="fill:#d2aa2a"
   inkscape:connector-curvature="0"
   d="m 277,328.9 c 0.4,-1.2 3.4,-5 4.3,-5.2 0.5,-0.1 0.6,5.5 0.2,6.7 -0.4,1.2 -2.1,2.7 -3.3,2.3 -1.2,-0.4 -1.6,-2.6 -1.2,-3.8 z"
   class="st7"
   id="XMLID_19_" />
		<path
   style="fill:#d2aa2a"
   inkscape:connector-curvature="0"
   d="m 282.4,331.3 c 1.3,0 6,1.4 6.5,2.1 0.3,0.4 -5,2.5 -6.3,2.5 -1.3,0 -3.4,-0.9 -3.4,-2.2 -0.1,-1.2 1.9,-2.3 3.2,-2.4 z"
   class="st7"
   id="XMLID_18_" />
		<path
   style="fill:#d2aa2a"
   inkscape:connector-curvature="0"
   d="m 271.7,333.4 c 0.4,-1.1 3.1,-4.6 3.9,-4.8 0.5,-0.1 0.6,5 0.2,6.1 -0.4,1.1 -1.9,2.5 -3,2.2 -1.1,-0.4 -1.5,-2.4 -1.1,-3.5 z"
   class="st7"
   id="XMLID_17_" />
		<path
   style="fill:#d2aa2a"
   inkscape:connector-curvature="0"
   d="m 276.7,335.6 c 1.2,0 5.5,1.3 6,1.9 0.3,0.4 -4.6,2.3 -5.8,2.3 -1.2,0 -3.1,-0.8 -3.1,-2 -0.1,-1.2 1.7,-2.2 2.9,-2.2 z"
   class="st7"
   id="XMLID_16_" />
		<polygon
   style="fill:#cc7c2f"
   points="295.7,321 266.7,342.3 295.1,320.3 "
   class="st8"
   id="XMLID_15_" />
	</g><g
       id="XMLID_82_">
		<path
   style="fill:#d2aa2a"
   inkscape:connector-curvature="0"
   d="m 214,318.7 c -1.1,-1 -3.8,-5.9 -3.7,-7 0.1,-0.6 6.3,2 7.4,3 1.1,1 2,3.5 1,4.6 -1,1 -3.6,0.4 -4.7,-0.6 z"
   class="st7"
   id="XMLID_14_" />
		<path
   style="fill:#d2aa2a"
   inkscape:connector-curvature="0"
   d="m 218.3,325.2 c -1.3,-0.2 -5.6,-2.4 -6,-3.2 -0.2,-0.5 5.4,-1.5 6.7,-1.3 1.3,0.2 3.1,1.5 2.9,2.8 -0.1,1.2 -2.3,1.9 -3.6,1.7 z"
   class="st7"
   id="XMLID_13_" />
		<path
   style="fill:#d2aa2a"
   inkscape:connector-curvature="0"
   d="m 220.3,319.2 c -0.3,-1.2 0.4,-5.9 1,-6.6 0.4,-0.4 3.4,4.4 3.6,5.7 0.3,1.2 -0.4,3.4 -1.7,3.6 -1.2,0.3 -2.7,-1.4 -2.9,-2.7 z"
   class="st7"
   id="XMLID_12_" />
		<path
   style="fill:#d2aa2a"
   inkscape:connector-curvature="0"
   d="m 223.8,330.1 c -1.3,-0.2 -5.6,-2.4 -6,-3.2 -0.2,-0.5 5.4,-1.5 6.7,-1.3 1.3,0.2 3.1,1.5 2.9,2.8 -0.2,1.2 -2.3,1.9 -3.6,1.7 z"
   class="st7"
   id="XMLID_11_" />
		<path
   style="fill:#d2aa2a"
   inkscape:connector-curvature="0"
   d="m 225.5,324.3 c -0.3,-1.2 0.4,-5.9 1,-6.6 0.4,-0.4 3.4,4.4 3.6,5.7 0.3,1.2 -0.4,3.4 -1.7,3.6 -1.2,0.3 -2.6,-1.4 -2.9,-2.7 z"
   class="st7"
   id="XMLID_10_" />
		<path
   style="fill:#d2aa2a"
   inkscape:connector-curvature="0"
   d="m 229.8,335.1 c -1.3,-0.2 -5.6,-2.4 -6,-3.2 -0.2,-0.5 5.4,-1.5 6.7,-1.3 1.3,0.2 3.1,1.5 2.9,2.8 -0.1,1.2 -2.3,1.9 -3.6,1.7 z"
   class="st7"
   id="XMLID_9_" />
		<path
   style="fill:#d2aa2a"
   inkscape:connector-curvature="0"
   d="m 231.4,329.5 c -0.3,-1.2 0.4,-5.9 1,-6.6 0.4,-0.4 3.4,4.4 3.6,5.7 0.3,1.2 -0.4,3.4 -1.7,3.6 -1.2,0.3 -2.7,-1.4 -2.9,-2.7 z"
   class="st7"
   id="XMLID_8_" />
		<path
   style="fill:#d2aa2a"
   inkscape:connector-curvature="0"
   d="m 235.2,339.4 c -1.2,-0.2 -5.1,-2.2 -5.5,-3 -0.2,-0.4 5,-1.4 6.2,-1.2 1.2,0.2 2.9,1.4 2.7,2.6 -0.2,1.2 -2.2,1.8 -3.4,1.6 z"
   class="st7"
   id="XMLID_7_" />
		<path
   style="fill:#d2aa2a"
   inkscape:connector-curvature="0"
   d="m 236.6,334.3 c -0.2,-1.1 0.4,-5.5 0.9,-6.1 0.3,-0.3 3.1,4.1 3.3,5.2 0.2,1.1 -0.3,3.1 -1.5,3.3 -1.1,0.3 -2.4,-1.3 -2.7,-2.4 z"
   class="st7"
   id="XMLID_6_" />
		<polygon
   style="fill:#cc7c2f"
   points="218.7,318.5 245.1,342.7 218,319.2 "
   class="st8"
   id="XMLID_5_" />
	</g><g
       id="XMLID_78_">
		<path
   style="fill:#956e28"
   inkscape:connector-curvature="0"
   d="m 241.4,174.2 c -1.9,1.5 -3.2,3.3 -4.1,5.4 -1.1,2.7 -1.4,5.5 -0.7,8.3 0.6,2.7 1.9,4.9 4.2,6.6 0.5,0.4 1.1,0.6 1.7,0.9 0.3,0.1 0.5,0.3 0.6,0.5 0.5,0.9 0.6,1.9 0.6,3 0,1.6 -0.3,3.2 -0.6,4.8 -0.1,0.2 -0.6,2.4 -0.8,4.3 v 0 c 0,1 0,1.9 0,2.9 0,2.5 0,5.1 0,7.6 0,2.4 0,4.7 0,7.1 0,1.6 0,3.3 0,4.9 0,0.4 0.2,0.9 0.4,1.3 0.7,1.1 2.1,1.3 3.3,1 1.1,-0.3 1.8,-1.4 1.8,-2.6 0,-2.9 0,-5.9 0,-8.8 0,-2.8 0,-5.6 0,-8.4 0,-1.5 0,-3.3 -0.1,-4.6 -0.1,-0.9 -0.6,-3.8 -0.8,-5.4 v 0 c -0.2,-1.1 -0.4,-2.2 -0.5,-3.2 -0.1,-1.2 0,-2.4 0.4,-3.5 0.1,-0.3 0.4,-0.7 0.7,-0.8 1.6,-0.6 2.8,-1.7 3.8,-3 1.4,-1.8 2.2,-3.9 2.4,-6.2 0.3,-2.7 -0.2,-5.3 -1.5,-7.7 -0.3,-0.6 -0.7,-1.1 -1.1,-1.6 -0.5,-0.4 -4.6,-6.8 -9.7,-2.8 z"
   class="st9"
   id="XMLID_80_" />
		<path
   style="fill:#2b4822"
   inkscape:connector-curvature="0"
   d="m 239.7,182.7 c 0,1 0,1.9 0,2.9 0.1,1.6 0.7,3.1 1.4,4.5 0.4,0.8 0.8,1.6 1.2,2.4 0,0 -0.1,0 -0.1,0.1 -1.8,-1.4 -3.1,-3.2 -3.7,-5.4 -0.6,-2.5 0,-4.8 1.1,-7 0,0 0.1,0 0.1,0 0,0.7 0,1.6 0,2.5 z"
   class="st1"
   id="XMLID_3_" />
	</g><g
       id="XMLID_76_">
		<path
   style="fill:#956e28"
   inkscape:connector-curvature="0"
   d="m 265.5,230.3 c 0.1,-2 0,-3.9 0,-5.9 0,-5.5 0,-16.3 0,-16.9 -0.1,-0.6 -0.6,-3.2 -0.8,-4.4 -0.7,-3.4 0,-6.4 2.3,-9 0.6,-0.6 1.2,-1.2 1.6,-1.9 0.8,-1.2 1,-2.6 0.8,-4 -0.3,-2.7 -0.7,-5.4 -1,-8.1 -0.2,-1.4 -0.4,-2.9 -0.6,-4.3 0,-0.1 -0.2,-0.2 -0.3,-0.3 -0.3,-0.1 -0.7,-0.1 -1.1,-0.1 0.2,5.2 0.3,5.5 0.5,10.7 -0.6,0 -1.2,0 -1.8,0 0,-5.1 0,-5.4 0,-10.5 -0.5,0 -0.9,0 -1.4,0 0,5.1 0,5.4 0,10.5 -0.6,0 -1,-0.1 -1.5,-0.1 0,-5 0,-5.3 0,-10.4 -0.6,0 -1,0 -1.4,0 0,5 0,5.3 0,10.3 -0.6,0 -1.2,0 -1.7,0 0,-0.4 0.2,-3.7 0.3,-7.2 0,-0.9 0.1,-1.9 0.1,-2.8 0,-0.2 0,-0.3 -0.3,-0.3 -0.4,0 -0.8,0 -1.2,0 0,0 0,0 -0.1,0.1 0,0.1 0,0.2 0,0.2 -0.2,1.6 -0.4,3.2 -0.6,4.8 -0.3,2.5 -0.5,5 -0.9,7.4 -0.3,2.2 0.2,4.1 1.9,5.8 2.5,2.5 3.1,5.6 2.6,9 -0.1,0.3 -0.7,4.4 -0.7,5.6 0,0 0,0 0,0 0,0 0,0.1 0,0.1 0,0 0,0.1 0,0.1 0,3.1 0,6.1 0,9.2 0,4.1 0,8.3 0,12.4 0,1.3 1.1,2.4 2.5,2.5 1.5,-0.2 2.8,-1.2 2.8,-2.5 z"
   class="st9"
   id="XMLID_2_" />
	</g><text
       style="font-size:11.68539906px;font-family:Helvetica-Light;fill:#f7eacc;stroke-width:1.01395261"
       class="st3 st10 st11"
       transform="scale(1.0139527,0.98623934)"
       id="XMLID_1_"
       x="175.66145"
       y="287.79504">produtos de qualidade</text>
</g><g
     id="g5208"
     transform="matrix(1.7667041,0,0,1.7667041,-199.80673,-210.72402)"><path
       id="path5052"
       class="st0"
       d="m 145.7,165.6 c 0,0 2.4,-3.4 8.7,-3 6.3,0.3 18.2,0.2 21.4,-5.5 3.3,-5.7 0.1,-25.7 13.9,-23 13.7,2.7 22.2,11.6 29.3,-4 7.1,-15.7 14.1,-13.6 20.8,-7.5 6.6,6 14.4,12.9 23.1,5.2 8.8,-7.8 16,-14.5 23,-4.2 7,10.3 8.2,18.9 22.6,13.9 14.4,-5 18.5,-7.1 21.8,7.1 3.3,14.2 3.6,18 14.6,17.7 11.1,-0.3 18.1,-0.6 19.9,6.4 1.8,7 -3.4,13.7 -1.6,22.8 1.8,9.1 19.6,5.5 24.8,15.9 5.2,10.4 -19.2,19.3 -4.5,32.1 14.6,12.7 19,15.2 -0.3,29.5 -14.9,11.1 14.4,27.4 1.7,35.7 0,0 -3.5,2.5 -10.2,4.4 -6.6,1.9 -13.7,4 -11.7,14.9 2,10.9 3.5,17.2 -2.2,20.2 -5.6,3 -22.9,-1.5 -26.8,5.5 -3.9,7 -1.7,19.8 -8.2,23.4 -6.5,3.6 -19.4,-6.4 -27.5,-4 -8.1,2.4 -7.6,14.2 -17.3,20.1 -9.7,5.9 -14.8,-11.6 -25.6,-12.2 -10.8,-0.7 -12.8,10.8 -23.3,13.2 -10.4,2.4 -12,-19.7 -22.2,-21.1 -10.2,-1.4 -19.2,8.1 -26.9,3.8 -7.7,-4.3 -2.5,-15.3 -9.7,-25 0,0 -2.8,-3.4 -13.8,-2.1 -11,1.3 -16.9,-3.4 -14.6,-13 2.4,-9.6 3.9,-18.2 -4.9,-21.4 -8.8,-3.2 -22.2,-5.5 -18,-15.9 4.3,-10.3 11.4,-15.7 6.8,-23.6 -4.7,-7.9 -18.5,-10.9 -15.2,-20.3 3.3,-9.4 15.8,-10.8 16.8,-19.6 1,-8.8 -11.2,-15.6 -9.2,-24.8 2,-9.2 19.9,-4.9 24.5,-15.2 3.2,-7.3 -5.1,-16.7 0,-26.4 z"
       inkscape:connector-curvature="0"
       style="fill:#4a6c31" /><ellipse
       id="ellipse5054"
       class="st1"
       cx="254.5"
       cy="255.5"
       rx="112.9"
       ry="109.8"
       style="fill:#2b4822" /><g
       id="g5064">
		<path
   id="path5056"
   class="st0"
   d="m 256.4,334.2 c 0,0 6,-35.4 -25.7,-43.4 0,0 -14,28.1 25.7,43.4 z"
   inkscape:connector-curvature="0"
   style="fill:#4a6c31" />
		<path
   id="path5058"
   class="st0"
   d="m 260.3,330 c 0,0 25.6,-3.5 24.5,-25.8 0,0 -22.2,-3.3 -24.5,25.8 z"
   inkscape:connector-curvature="0"
   style="fill:#4a6c31" />
		<path
   id="path5060"
   class="st2"
   d="m 257.9,335.5 c 0,0 -13,-30.8 -24,-39.4 0,0 12.7,14.2 22.8,39.9 2.7,7.1 1.2,-0.5 1.2,-0.5 z"
   inkscape:connector-curvature="0"
   style="fill:#709342" />
		<path
   id="path5062"
   class="st2"
   d="m 256,334.3 c 0,0 18.7,-23.7 22.5,-25 0,0 0.6,0.1 -0.6,1.1 -1.1,1 -19.9,21.8 -21.5,25 z"
   inkscape:connector-curvature="0"
   style="fill:#709342" />
	</g><g
       id="g5148">
		<ellipse
   id="ellipse5066"
   class="st3"
   cx="254.39999"
   cy="355.5"
   rx="3.5"
   ry="3.4000001"
   style="fill:#f7eacc" />
		<path
   id="path5068"
   class="st3"
   d="m 266.4,354.9 c -0.3,-1.9 1,-3.6 2.9,-3.9 1.9,-0.3 3.7,1 4,2.8 0.3,1.9 -1,3.6 -2.9,3.9 -1.9,0.4 -3.7,-0.9 -4,-2.8 z"
   inkscape:connector-curvature="0"
   style="fill:#f7eacc" />
		<path
   id="path5070"
   class="st3"
   d="m 281.7,352 c -0.6,-1.8 0.4,-3.7 2.3,-4.3 1.8,-0.6 3.8,0.4 4.4,2.2 0.6,1.8 -0.4,3.7 -2.3,4.3 -1.9,0.6 -3.8,-0.4 -4.4,-2.2 z"
   inkscape:connector-curvature="0"
   style="fill:#f7eacc" />
		<path
   id="path5072"
   class="st3"
   d="m 296.3,346.9 c -0.9,-1.7 -0.1,-3.7 1.6,-4.5 1.7,-0.8 3.8,-0.1 4.7,1.5 0.9,1.7 0.1,3.7 -1.6,4.5 -1.8,0.9 -3.8,0.2 -4.7,-1.5 z"
   inkscape:connector-curvature="0"
   style="fill:#f7eacc" />
		<path
   id="path5074"
   class="st3"
   d="m 310,339.7 c -1.1,-1.5 -0.7,-3.7 0.9,-4.7 1.6,-1.1 3.8,-0.7 4.9,0.8 1.1,1.5 0.7,3.7 -0.9,4.7 -1.7,1.1 -3.8,0.7 -4.9,-0.8 z"
   inkscape:connector-curvature="0"
   style="fill:#f7eacc" />
		<path
   id="path5076"
   class="st3"
   d="m 322.3,330.5 c -1.3,-1.4 -1.3,-3.5 0.1,-4.8 1.4,-1.3 3.6,-1.2 4.9,0.1 1.3,1.4 1.3,3.5 -0.1,4.8 -1.3,1.3 -3.5,1.3 -4.9,-0.1 z"
   inkscape:connector-curvature="0"
   style="fill:#f7eacc" />
		<path
   id="path5078"
   class="st3"
   d="m 333.1,319.7 c -1.5,-1.1 -1.8,-3.3 -0.6,-4.8 1.2,-1.5 3.4,-1.8 4.9,-0.6 1.5,1.2 1.8,3.3 0.6,4.8 -1.2,1.5 -3.3,1.7 -4.9,0.6 z"
   inkscape:connector-curvature="0"
   style="fill:#f7eacc" />
		<path
   id="path5080"
   class="st3"
   d="m 342.1,307.3 c -1.7,-0.9 -2.3,-3 -1.4,-4.6 0.9,-1.6 3.1,-2.2 4.7,-1.3 1.7,0.9 2.3,3 1.4,4.6 -0.9,1.6 -3,2.2 -4.7,1.3 z"
   inkscape:connector-curvature="0"
   style="fill:#f7eacc" />
		<path
   id="path5082"
   class="st3"
   d="m 349.1,293.8 c -1.8,-0.6 -2.7,-2.6 -2.1,-4.4 0.7,-1.8 2.7,-2.7 4.5,-2 1.8,0.6 2.7,2.6 2.1,4.4 -0.7,1.7 -2.7,2.6 -4.5,2 z"
   inkscape:connector-curvature="0"
   style="fill:#f7eacc" />
		<path
   id="path5084"
   class="st3"
   d="m 353.8,279.4 c -1.9,-0.4 -3.1,-2.2 -2.7,-4 0.4,-1.8 2.2,-3 4.1,-2.7 1.9,0.4 3.1,2.2 2.7,4 -0.4,1.9 -2.2,3.1 -4.1,2.7 z"
   inkscape:connector-curvature="0"
   style="fill:#f7eacc" />
		<path
   id="path5086"
   class="st3"
   d="m 356.3,264.5 c -1.9,-0.1 -3.4,-1.7 -3.3,-3.5 0.1,-1.9 1.7,-3.3 3.6,-3.2 1.9,0.1 3.4,1.7 3.3,3.5 -0.1,1.8 -1.7,3.3 -3.6,3.2 z"
   inkscape:connector-curvature="0"
   style="fill:#f7eacc" />
		<path
   id="path5088"
   class="st3"
   d="m 356.4,249.4 c -1.9,0.2 -3.6,-1.2 -3.8,-3 -0.2,-1.9 1.2,-3.5 3.1,-3.7 1.9,-0.2 3.6,1.2 3.8,3 0.2,1.8 -1.2,3.5 -3.1,3.7 z"
   inkscape:connector-curvature="0"
   style="fill:#f7eacc" />
		<path
   id="path5090"
   class="st3"
   d="m 354.1,234.4 c -1.9,0.5 -3.8,-0.6 -4.3,-2.4 -0.5,-1.8 0.6,-3.7 2.5,-4.1 1.9,-0.5 3.8,0.6 4.3,2.4 0.5,1.8 -0.7,3.6 -2.5,4.1 z"
   inkscape:connector-curvature="0"
   style="fill:#f7eacc" />
		<path
   id="path5092"
   class="st3"
   d="m 349.5,220 c -1.8,0.7 -3.8,0 -4.6,-1.8 -0.8,-1.7 0,-3.7 1.8,-4.5 1.8,-0.7 3.8,0 4.6,1.8 0.8,1.7 0,3.7 -1.8,4.5 z"
   inkscape:connector-curvature="0"
   style="fill:#f7eacc" />
		<path
   id="path5094"
   class="st3"
   d="m 342.7,206.3 c -1.6,1 -3.8,0.5 -4.8,-1.1 -1,-1.6 -0.5,-3.7 1.1,-4.7 1.6,-1 3.8,-0.5 4.8,1.1 1,1.6 0.6,3.7 -1.1,4.7 z"
   inkscape:connector-curvature="0"
   style="fill:#f7eacc" />
		<path
   id="path5096"
   class="st3"
   d="m 333.9,193.9 c -1.5,1.2 -3.7,1.1 -4.9,-0.3 -1.3,-1.4 -1.1,-3.6 0.3,-4.8 1.5,-1.2 3.7,-1.1 4.9,0.3 1.3,1.4 1.2,3.6 -0.3,4.8 z"
   inkscape:connector-curvature="0"
   style="fill:#f7eacc" />
		<path
   id="path5098"
   class="st3"
   d="m 323.2,182.9 c -1.2,1.4 -3.4,1.6 -4.9,0.4 -1.5,-1.2 -1.7,-3.4 -0.4,-4.8 1.2,-1.4 3.4,-1.6 4.9,-0.4 1.5,1.2 1.7,3.4 0.4,4.8 z"
   inkscape:connector-curvature="0"
   style="fill:#f7eacc" />
		<path
   id="path5100"
   class="st3"
   d="m 311,173.6 c -1,1.6 -3.2,2.1 -4.8,1.1 -1.6,-1 -2.2,-3.1 -1.2,-4.7 1,-1.6 3.2,-2.1 4.8,-1.1 1.7,1 2.2,3.1 1.2,4.7 z"
   inkscape:connector-curvature="0"
   style="fill:#f7eacc" />
		<path
   id="path5102"
   class="st3"
   d="m 297.4,166.2 c -0.7,1.7 -2.8,2.5 -4.6,1.8 -1.8,-0.7 -2.6,-2.7 -1.9,-4.4 0.7,-1.7 2.8,-2.5 4.6,-1.8 1.8,0.7 2.6,2.7 1.9,4.4 z"
   inkscape:connector-curvature="0"
   style="fill:#f7eacc" />
		<path
   id="path5104"
   class="st3"
   d="m 282.8,160.9 c -0.5,1.8 -2.4,2.9 -4.2,2.5 -1.9,-0.5 -3,-2.3 -2.5,-4.1 0.5,-1.8 2.4,-2.9 4.2,-2.5 1.9,0.5 3,2.3 2.5,4.1 z"
   inkscape:connector-curvature="0"
   style="fill:#f7eacc" />
		<path
   id="path5106"
   class="st3"
   d="m 267.6,157.9 c -0.2,1.9 -1.9,3.2 -3.8,3.1 -1.9,-0.2 -3.3,-1.8 -3.2,-3.7 0.2,-1.9 1.9,-3.2 3.8,-3.1 2,0.2 3.4,1.8 3.2,3.7 z"
   inkscape:connector-curvature="0"
   style="fill:#f7eacc" />
		<path
   id="path5108"
   class="st3"
   d="m 252.1,157.1 c 0.1,1.9 -1.4,3.5 -3.3,3.6 -1.9,0.1 -3.6,-1.3 -3.7,-3.2 -0.1,-1.9 1.4,-3.5 3.3,-3.6 1.9,-0.1 3.6,1.3 3.7,3.2 z"
   inkscape:connector-curvature="0"
   style="fill:#f7eacc" />
		<path
   id="path5110"
   class="st3"
   d="m 236.6,158.6 c 0.4,1.8 -0.8,3.6 -2.7,4 -1.9,0.4 -3.7,-0.8 -4.1,-2.6 -0.4,-1.8 0.8,-3.6 2.7,-4 1.9,-0.4 3.7,0.8 4.1,2.6 z"
   inkscape:connector-curvature="0"
   style="fill:#f7eacc" />
		<path
   id="path5112"
   class="st3"
   d="m 221.6,162.4 c 0.7,1.8 -0.2,3.7 -2,4.4 -1.8,0.7 -3.8,-0.2 -4.5,-2 -0.7,-1.8 0.2,-3.7 2,-4.4 1.8,-0.7 3.8,0.2 4.5,2 z"
   inkscape:connector-curvature="0"
   style="fill:#f7eacc" />
		<path
   id="path5114"
   class="st3"
   d="m 207.3,168.3 c 1,1.6 0.4,3.7 -1.3,4.6 -1.7,0.9 -3.8,0.4 -4.8,-1.3 -1,-1.6 -0.4,-3.7 1.3,-4.6 1.7,-0.9 3.8,-0.3 4.8,1.3 z"
   inkscape:connector-curvature="0"
   style="fill:#f7eacc" />
		<path
   id="path5116"
   class="st3"
   d="m 194.1,176.3 c 1.2,1.5 0.9,3.6 -0.6,4.8 -1.5,1.2 -3.7,0.9 -4.9,-0.6 -1.2,-1.5 -0.9,-3.6 0.6,-4.8 1.5,-1.1 3.7,-0.8 4.9,0.6 z"
   inkscape:connector-curvature="0"
   style="fill:#f7eacc" />
		<path
   id="path5118"
   class="st3"
   d="m 182.3,186.2 c 1.4,1.3 1.5,3.4 0.2,4.8 -1.3,1.4 -3.5,1.5 -4.9,0.2 -1.4,-1.3 -1.5,-3.4 -0.2,-4.8 1.3,-1.4 3.5,-1.5 4.9,-0.2 z"
   inkscape:connector-curvature="0"
   style="fill:#f7eacc" />
		<path
   id="path5120"
   class="st3"
   d="m 172.2,197.7 c 1.6,1.1 2,3.2 0.9,4.7 -1.1,1.6 -3.3,2 -4.8,0.9 -1.6,-1.1 -2,-3.2 -0.9,-4.7 1,-1.6 3.2,-2 4.8,-0.9 z"
   inkscape:connector-curvature="0"
   style="fill:#f7eacc" />
		<path
   id="path5122"
   class="st3"
   d="m 164,210.5 c 1.7,0.8 2.5,2.8 1.7,4.5 -0.8,1.7 -2.9,2.4 -4.6,1.6 -1.7,-0.8 -2.5,-2.8 -1.7,-4.5 0.8,-1.7 2.9,-2.4 4.6,-1.6 z"
   inkscape:connector-curvature="0"
   style="fill:#f7eacc" />
		<path
   id="path5124"
   class="st3"
   d="m 157.9,224.4 c 1.8,0.5 2.9,2.4 2.3,4.2 -0.6,1.8 -2.5,2.8 -4.3,2.3 -1.8,-0.5 -2.9,-2.4 -2.3,-4.2 0.5,-1.8 2.5,-2.8 4.3,-2.3 z"
   inkscape:connector-curvature="0"
   style="fill:#f7eacc" />
		<path
   id="path5126"
   class="st3"
   d="m 154,239.1 c 1.9,0.3 3.2,2 3,3.8 -0.3,1.9 -2,3.2 -3.9,2.9 -1.9,-0.3 -3.2,-2 -3,-3.8 0.3,-1.9 2,-3.2 3.9,-2.9 z"
   inkscape:connector-curvature="0"
   style="fill:#f7eacc" />
		
			<ellipse
   id="ellipse5128"
   transform="matrix(-0.01372336,-0.9999,0.9999,-0.01372336,-102.8335,413.5738)"
   class="st3"
   cx="152.60001"
   cy="257.5"
   rx="3.4000001"
   ry="3.5"
   style="fill:#f7eacc" />
		<path
   id="path5130"
   class="st3"
   d="m 153.3,269.2 c 1.9,-0.3 3.7,0.9 4,2.8 0.3,1.8 -1,3.6 -2.9,3.9 -1.9,0.3 -3.7,-0.9 -4,-2.8 -0.2,-1.8 1,-3.6 2.9,-3.9 z"
   inkscape:connector-curvature="0"
   style="fill:#f7eacc" />
		<path
   id="path5132"
   class="st3"
   d="m 156.5,284 c 1.8,-0.6 3.8,0.4 4.4,2.2 0.6,1.8 -0.4,3.7 -2.2,4.3 -1.8,0.6 -3.8,-0.4 -4.4,-2.2 -0.6,-1.8 0.4,-3.7 2.2,-4.3 z"
   inkscape:connector-curvature="0"
   style="fill:#f7eacc" />
		<path
   id="path5134"
   class="st3"
   d="m 162,298.2 c 1.7,-0.9 3.8,-0.2 4.7,1.5 0.9,1.7 0.2,3.7 -1.5,4.6 -1.7,0.9 -3.8,0.2 -4.7,-1.5 -0.9,-1.7 -0.2,-3.8 1.5,-4.6 z"
   inkscape:connector-curvature="0"
   style="fill:#f7eacc" />
		<path
   id="path5136"
   class="st3"
   d="m 169.6,311.3 c 1.6,-1.1 3.7,-0.7 4.9,0.8 1.1,1.5 0.8,3.6 -0.8,4.7 -1.6,1.1 -3.7,0.7 -4.9,-0.8 -1.1,-1.4 -0.8,-3.6 0.8,-4.7 z"
   inkscape:connector-curvature="0"
   style="fill:#f7eacc" />
		<path
   id="path5138"
   class="st3"
   d="m 179.2,323.3 c 1.4,-1.3 3.6,-1.3 4.9,0 1.3,1.3 1.3,3.5 0,4.8 -1.4,1.3 -3.6,1.3 -4.9,0 -1.3,-1.3 -1.4,-3.5 0,-4.8 z"
   inkscape:connector-curvature="0"
   style="fill:#f7eacc" />
		<path
   id="path5140"
   class="st3"
   d="m 190.5,333.6 c 1.2,-1.5 3.3,-1.8 4.9,-0.7 1.5,1.1 1.9,3.3 0.7,4.8 -1.2,1.5 -3.3,1.8 -4.9,0.7 -1.6,-1.2 -1.9,-3.3 -0.7,-4.8 z"
   inkscape:connector-curvature="0"
   style="fill:#f7eacc" />
		<path
   id="path5142"
   class="st3"
   d="m 203.3,342.2 c 0.9,-1.7 3,-2.3 4.7,-1.4 1.7,0.9 2.3,2.9 1.4,4.6 -0.9,1.7 -3,2.3 -4.7,1.4 -1.7,-0.9 -2.3,-3 -1.4,-4.6 z"
   inkscape:connector-curvature="0"
   style="fill:#f7eacc" />
		<path
   id="path5144"
   class="st3"
   d="m 217.3,348.8 c 0.6,-1.8 2.6,-2.7 4.4,-2.1 1.8,0.6 2.8,2.6 2.1,4.3 -0.6,1.8 -2.6,2.7 -4.4,2.1 -1.8,-0.6 -2.8,-2.6 -2.1,-4.3 z"
   inkscape:connector-curvature="0"
   style="fill:#f7eacc" />
		<path
   id="path5146"
   class="st3"
   d="m 232.1,353.2 c 0.4,-1.8 2.2,-3.1 4.1,-2.7 1.9,0.3 3.1,2.1 2.8,4 -0.4,1.8 -2.2,3.1 -4.1,2.7 -1.9,-0.4 -3.1,-2.2 -2.8,-4 z"
   inkscape:connector-curvature="0"
   style="fill:#f7eacc" />
	</g><text
       y="270.60339"
       x="160.26408"
       id="text5150"
       transform="scale(1.0139527,0.98623934)"
       class="st4 st5 st6"
       style="font-size:45.28069305px;font-family:Helvetica;fill:#d2aa2a;stroke:#d2aa2a;stroke-width:1.01395261;stroke-miterlimit:10">Quitanda</text>
<g
       id="g5172">
		<path
   id="path5152"
   class="st7"
   d="m 296.3,316.5 c 1.2,-0.9 6.6,-2.7 7.7,-2.4 0.6,0.2 -3,5.7 -4.3,6.6 -1.2,0.9 -3.8,1.4 -4.8,0.2 -0.9,-1.1 0.2,-3.5 1.4,-4.4 z"
   inkscape:connector-curvature="0"
   style="fill:#d2aa2a" />
		<path
   id="path5154"
   class="st7"
   d="m 288.9,319.6 c 0.4,-1.2 3.4,-5 4.3,-5.2 0.5,-0.1 0.6,5.5 0.2,6.7 -0.4,1.2 -2.1,2.7 -3.3,2.3 -1.2,-0.4 -1.6,-2.6 -1.2,-3.8 z"
   inkscape:connector-curvature="0"
   style="fill:#d2aa2a" />
		<path
   id="path5156"
   class="st7"
   d="m 294.7,322.4 c 1.3,0 6,1.4 6.5,2.1 0.3,0.4 -5,2.5 -6.3,2.5 -1.3,0 -3.4,-0.9 -3.4,-2.2 -0.1,-1.2 1.9,-2.3 3.2,-2.4 z"
   inkscape:connector-curvature="0"
   style="fill:#d2aa2a" />
		<path
   id="path5158"
   class="st7"
   d="m 283.1,324 c 0.4,-1.2 3.4,-5 4.3,-5.2 0.5,-0.1 0.6,5.5 0.2,6.7 -0.4,1.2 -2.1,2.7 -3.3,2.3 -1.3,-0.4 -1.6,-2.6 -1.2,-3.8 z"
   inkscape:connector-curvature="0"
   style="fill:#d2aa2a" />
		<path
   id="path5160"
   class="st7"
   d="m 288.7,326.6 c 1.3,0 6,1.4 6.5,2.1 0.3,0.4 -5,2.5 -6.3,2.5 -1.3,0 -3.4,-0.9 -3.4,-2.2 -0.1,-1.3 1.9,-2.4 3.2,-2.4 z"
   inkscape:connector-curvature="0"
   style="fill:#d2aa2a" />
		<path
   id="path5162"
   class="st7"
   d="m 277,328.9 c 0.4,-1.2 3.4,-5 4.3,-5.2 0.5,-0.1 0.6,5.5 0.2,6.7 -0.4,1.2 -2.1,2.7 -3.3,2.3 -1.2,-0.4 -1.6,-2.6 -1.2,-3.8 z"
   inkscape:connector-curvature="0"
   style="fill:#d2aa2a" />
		<path
   id="path5164"
   class="st7"
   d="m 282.4,331.3 c 1.3,0 6,1.4 6.5,2.1 0.3,0.4 -5,2.5 -6.3,2.5 -1.3,0 -3.4,-0.9 -3.4,-2.2 -0.1,-1.2 1.9,-2.3 3.2,-2.4 z"
   inkscape:connector-curvature="0"
   style="fill:#d2aa2a" />
		<path
   id="path5166"
   class="st7"
   d="m 271.7,333.4 c 0.4,-1.1 3.1,-4.6 3.9,-4.8 0.5,-0.1 0.6,5 0.2,6.1 -0.4,1.1 -1.9,2.5 -3,2.2 -1.1,-0.4 -1.5,-2.4 -1.1,-3.5 z"
   inkscape:connector-curvature="0"
   style="fill:#d2aa2a" />
		<path
   id="path5168"
   class="st7"
   d="m 276.7,335.6 c 1.2,0 5.5,1.3 6,1.9 0.3,0.4 -4.6,2.3 -5.8,2.3 -1.2,0 -3.1,-0.8 -3.1,-2 -0.1,-1.2 1.7,-2.2 2.9,-2.2 z"
   inkscape:connector-curvature="0"
   style="fill:#d2aa2a" />
		<polygon
   id="polygon5170"
   class="st8"
   points="295.7,321 266.7,342.3 295.1,320.3 "
   style="fill:#cc7c2f" />
	</g><g
       id="g5194">
		<path
   id="path5174"
   class="st7"
   d="m 214,318.7 c -1.1,-1 -3.8,-5.9 -3.7,-7 0.1,-0.6 6.3,2 7.4,3 1.1,1 2,3.5 1,4.6 -1,1 -3.6,0.4 -4.7,-0.6 z"
   inkscape:connector-curvature="0"
   style="fill:#d2aa2a" />
		<path
   id="path5176"
   class="st7"
   d="m 218.3,325.2 c -1.3,-0.2 -5.6,-2.4 -6,-3.2 -0.2,-0.5 5.4,-1.5 6.7,-1.3 1.3,0.2 3.1,1.5 2.9,2.8 -0.1,1.2 -2.3,1.9 -3.6,1.7 z"
   inkscape:connector-curvature="0"
   style="fill:#d2aa2a" />
		<path
   id="path5178"
   class="st7"
   d="m 220.3,319.2 c -0.3,-1.2 0.4,-5.9 1,-6.6 0.4,-0.4 3.4,4.4 3.6,5.7 0.3,1.2 -0.4,3.4 -1.7,3.6 -1.2,0.3 -2.7,-1.4 -2.9,-2.7 z"
   inkscape:connector-curvature="0"
   style="fill:#d2aa2a" />
		<path
   id="path5180"
   class="st7"
   d="m 223.8,330.1 c -1.3,-0.2 -5.6,-2.4 -6,-3.2 -0.2,-0.5 5.4,-1.5 6.7,-1.3 1.3,0.2 3.1,1.5 2.9,2.8 -0.2,1.2 -2.3,1.9 -3.6,1.7 z"
   inkscape:connector-curvature="0"
   style="fill:#d2aa2a" />
		<path
   id="path5182"
   class="st7"
   d="m 225.5,324.3 c -0.3,-1.2 0.4,-5.9 1,-6.6 0.4,-0.4 3.4,4.4 3.6,5.7 0.3,1.2 -0.4,3.4 -1.7,3.6 -1.2,0.3 -2.6,-1.4 -2.9,-2.7 z"
   inkscape:connector-curvature="0"
   style="fill:#d2aa2a" />
		<path
   id="path5184"
   class="st7"
   d="m 229.8,335.1 c -1.3,-0.2 -5.6,-2.4 -6,-3.2 -0.2,-0.5 5.4,-1.5 6.7,-1.3 1.3,0.2 3.1,1.5 2.9,2.8 -0.1,1.2 -2.3,1.9 -3.6,1.7 z"
   inkscape:connector-curvature="0"
   style="fill:#d2aa2a" />
		<path
   id="path5186"
   class="st7"
   d="m 231.4,329.5 c -0.3,-1.2 0.4,-5.9 1,-6.6 0.4,-0.4 3.4,4.4 3.6,5.7 0.3,1.2 -0.4,3.4 -1.7,3.6 -1.2,0.3 -2.7,-1.4 -2.9,-2.7 z"
   inkscape:connector-curvature="0"
   style="fill:#d2aa2a" />
		<path
   id="path5188"
   class="st7"
   d="m 235.2,339.4 c -1.2,-0.2 -5.1,-2.2 -5.5,-3 -0.2,-0.4 5,-1.4 6.2,-1.2 1.2,0.2 2.9,1.4 2.7,2.6 -0.2,1.2 -2.2,1.8 -3.4,1.6 z"
   inkscape:connector-curvature="0"
   style="fill:#d2aa2a" />
		<path
   id="path5190"
   class="st7"
   d="m 236.6,334.3 c -0.2,-1.1 0.4,-5.5 0.9,-6.1 0.3,-0.3 3.1,4.1 3.3,5.2 0.2,1.1 -0.3,3.1 -1.5,3.3 -1.1,0.3 -2.4,-1.3 -2.7,-2.4 z"
   inkscape:connector-curvature="0"
   style="fill:#d2aa2a" />
		<polygon
   id="polygon5192"
   class="st8"
   points="218.7,318.5 245.1,342.7 218,319.2 "
   style="fill:#cc7c2f" />
	</g><g
       id="g5200">
		<path
   id="path5196"
   class="st9"
   d="m 241.4,174.2 c -1.9,1.5 -3.2,3.3 -4.1,5.4 -1.1,2.7 -1.4,5.5 -0.7,8.3 0.6,2.7 1.9,4.9 4.2,6.6 0.5,0.4 1.1,0.6 1.7,0.9 0.3,0.1 0.5,0.3 0.6,0.5 0.5,0.9 0.6,1.9 0.6,3 0,1.6 -0.3,3.2 -0.6,4.8 -0.1,0.2 -0.6,2.4 -0.8,4.3 v 0 c 0,1 0,1.9 0,2.9 0,2.5 0,5.1 0,7.6 0,2.4 0,4.7 0,7.1 0,1.6 0,3.3 0,4.9 0,0.4 0.2,0.9 0.4,1.3 0.7,1.1 2.1,1.3 3.3,1 1.1,-0.3 1.8,-1.4 1.8,-2.6 0,-2.9 0,-5.9 0,-8.8 0,-2.8 0,-5.6 0,-8.4 0,-1.5 0,-3.3 -0.1,-4.6 -0.1,-0.9 -0.6,-3.8 -0.8,-5.4 v 0 c -0.2,-1.1 -0.4,-2.2 -0.5,-3.2 -0.1,-1.2 0,-2.4 0.4,-3.5 0.1,-0.3 0.4,-0.7 0.7,-0.8 1.6,-0.6 2.8,-1.7 3.8,-3 1.4,-1.8 2.2,-3.9 2.4,-6.2 0.3,-2.7 -0.2,-5.3 -1.5,-7.7 -0.3,-0.6 -0.7,-1.1 -1.1,-1.6 -0.5,-0.4 -4.6,-6.8 -9.7,-2.8 z"
   inkscape:connector-curvature="0"
   style="fill:#956e28" />
		<path
   id="path5198"
   class="st1"
   d="m 239.7,182.7 c 0,1 0,1.9 0,2.9 0.1,1.6 0.7,3.1 1.4,4.5 0.4,0.8 0.8,1.6 1.2,2.4 0,0 -0.1,0 -0.1,0.1 -1.8,-1.4 -3.1,-3.2 -3.7,-5.4 -0.6,-2.5 0,-4.8 1.1,-7 0,0 0.1,0 0.1,0 0,0.7 0,1.6 0,2.5 z"
   inkscape:connector-curvature="0"
   style="fill:#2b4822" />
	</g><g
       id="g5204">
		<path
   id="path5202"
   class="st9"
   d="m 265.5,230.3 c 0.1,-2 0,-3.9 0,-5.9 0,-5.5 0,-16.3 0,-16.9 -0.1,-0.6 -0.6,-3.2 -0.8,-4.4 -0.7,-3.4 0,-6.4 2.3,-9 0.6,-0.6 1.2,-1.2 1.6,-1.9 0.8,-1.2 1,-2.6 0.8,-4 -0.3,-2.7 -0.7,-5.4 -1,-8.1 -0.2,-1.4 -0.4,-2.9 -0.6,-4.3 0,-0.1 -0.2,-0.2 -0.3,-0.3 -0.3,-0.1 -0.7,-0.1 -1.1,-0.1 0.2,5.2 0.3,5.5 0.5,10.7 -0.6,0 -1.2,0 -1.8,0 0,-5.1 0,-5.4 0,-10.5 -0.5,0 -0.9,0 -1.4,0 0,5.1 0,5.4 0,10.5 -0.6,0 -1,-0.1 -1.5,-0.1 0,-5 0,-5.3 0,-10.4 -0.6,0 -1,0 -1.4,0 0,5 0,5.3 0,10.3 -0.6,0 -1.2,0 -1.7,0 0,-0.4 0.2,-3.7 0.3,-7.2 0,-0.9 0.1,-1.9 0.1,-2.8 0,-0.2 0,-0.3 -0.3,-0.3 -0.4,0 -0.8,0 -1.2,0 0,0 0,0 -0.1,0.1 0,0.1 0,0.2 0,0.2 -0.2,1.6 -0.4,3.2 -0.6,4.8 -0.3,2.5 -0.5,5 -0.9,7.4 -0.3,2.2 0.2,4.1 1.9,5.8 2.5,2.5 3.1,5.6 2.6,9 -0.1,0.3 -0.7,4.4 -0.7,5.6 0,0 0,0 0,0 0,0 0,0.1 0,0.1 0,0 0,0.1 0,0.1 0,3.1 0,6.1 0,9.2 0,4.1 0,8.3 0,12.4 0,1.3 1.1,2.4 2.5,2.5 1.5,-0.2 2.8,-1.2 2.8,-2.5 z"
   inkscape:connector-curvature="0"
   style="fill:#956e28" />
	</g><text
       y="287.79504"
       x="175.66145"
       id="text5206"
       transform="scale(1.0139527,0.98623934)"
       class="st3 st10 st11"
       style="font-size:11.68539906px;font-family:Helvetica-Light;fill:#f7eacc;stroke-width:1.01395261">produtos de qualidade</text>
</g><use
     id="use5210"
     xlink:href="#g5208"
     y="0"
     x="0"
     width="100%"
     height="100%" /></g></svg>