<?xml version="1.0" encoding="utf-8"?>
<!-- Generator: Adobe Illustrator 19.0.0, SVG Export Plug-In . SVG Version: 6.00 Build 0)  -->
<svg version="1.1" id="Camada_1" xmlns="http://www.w3.org/2000/svg" xmlns:xlink="http://www.w3.org/1999/xlink" x="0px" y="0px"
	 viewBox="0 0 500 500" style="enable-background:new 0 0 500 500;" xml:space="preserve">
<style type="text/css">
	.st0{fill:#4A6C31;}
	.st1{fill:#2B4822;}
	.st2{fill:#709342;}
	.st3{fill:#F7EACC;}
	.st4{fill:#D2AA2A;stroke:#D2AA2A;stroke-miterlimit:10;}
	.st5{font-family:'Helvetica';}
	.st6{font-size:44.6576px;}
	.st7{fill:#D2AA2A;}
	.st8{fill:#CC7C2F;}
	.st9{fill:#956E28;}
	.st10{font-family:'Helvetica-Light';}
	.st11{font-size:11.5246px;}
</style>
<g id="XMLID_74_">
	<path id="XMLID_72_" class="st0" d="M145.7,165.6c0,0,2.4-3.4,8.7-3c6.3,0.3,18.2,0.2,21.4-5.5c3.3-5.7,0.1-25.7,13.9-23
		c13.7,2.7,22.2,11.6,29.3-4c7.1-15.7,14.1-13.6,20.8-7.5c6.6,6,14.4,12.9,23.1,5.2c8.8-7.8,16-14.5,23-4.2
		c7,10.3,8.2,18.9,22.6,13.9c14.4-5,18.5-7.1,21.8,7.1c3.3,14.2,3.6,18,14.6,17.7c11.1-0.3,18.1-0.6,19.9,6.4
		c1.8,7-3.4,13.7-1.6,22.8c1.8,9.1,19.6,5.5,24.8,15.9c5.2,10.4-19.2,19.3-4.5,32.1c14.6,12.7,19,15.2-0.3,29.5
		c-14.9,11.1,14.4,27.4,1.7,35.7c0,0-3.5,2.5-10.2,4.4c-6.6,1.9-13.7,4-11.7,14.9s3.5,17.2-2.2,20.2c-5.6,3-22.9-1.5-26.8,5.5
		c-3.9,7-1.7,19.8-8.2,23.4c-6.5,3.6-19.4-6.4-27.5-4c-8.1,2.4-7.6,14.2-17.3,20.1c-9.7,5.9-14.8-11.6-25.6-12.2
		c-10.8-0.7-12.8,10.8-23.3,13.2c-10.4,2.4-12-19.7-22.2-21.1c-10.2-1.4-19.2,8.1-26.9,3.8c-7.7-4.3-2.5-15.3-9.7-25
		c0,0-2.8-3.4-13.8-2.1c-11,1.3-16.9-3.4-14.6-13c2.4-9.6,3.9-18.2-4.9-21.4c-8.8-3.2-22.2-5.5-18-15.9c4.3-10.3,11.4-15.7,6.8-23.6
		c-4.7-7.9-18.5-10.9-15.2-20.3c3.3-9.4,15.8-10.8,16.8-19.6c1-8.8-11.2-15.6-9.2-24.8c2-9.2,19.9-4.9,24.5-15.2
		C148.9,184.7,140.6,175.3,145.7,165.6z"/>
	<ellipse id="XMLID_71_" class="st1" cx="254.5" cy="255.5" rx="112.9" ry="109.8"/>
	<g id="XMLID_147_">
		<path id="XMLID_70_" class="st0" d="M256.4,334.2c0,0,6-35.4-25.7-43.4C230.7,290.8,216.7,318.9,256.4,334.2z"/>
		<path id="XMLID_69_" class="st0" d="M260.3,330c0,0,25.6-3.5,24.5-25.8C284.8,304.2,262.6,300.9,260.3,330z"/>
		<path id="XMLID_68_" class="st2" d="M257.9,335.5c0,0-13-30.8-24-39.4c0,0,12.7,14.2,22.8,39.9
			C259.4,343.1,257.9,335.5,257.9,335.5z"/>
		<path id="XMLID_67_" class="st2" d="M256,334.3c0,0,18.7-23.7,22.5-25c0,0,0.6,0.1-0.6,1.1c-1.1,1-19.9,21.8-21.5,25L256,334.3z"
			/>
	</g>
	<g id="XMLID_105_">
		<ellipse id="XMLID_66_" class="st3" cx="254.4" cy="355.5" rx="3.5" ry="3.4"/>
		<path id="XMLID_65_" class="st3" d="M266.4,354.9c-0.3-1.9,1-3.6,2.9-3.9c1.9-0.3,3.7,1,4,2.8c0.3,1.9-1,3.6-2.9,3.9
			C268.5,358.1,266.7,356.8,266.4,354.9z"/>
		<path id="XMLID_64_" class="st3" d="M281.7,352c-0.6-1.8,0.4-3.7,2.3-4.3c1.8-0.6,3.8,0.4,4.4,2.2c0.6,1.8-0.4,3.7-2.3,4.3
			C284.2,354.8,282.3,353.8,281.7,352z"/>
		<path id="XMLID_63_" class="st3" d="M296.3,346.9c-0.9-1.7-0.1-3.7,1.6-4.5c1.7-0.8,3.8-0.1,4.7,1.5c0.9,1.7,0.1,3.7-1.6,4.5
			C299.2,349.3,297.2,348.6,296.3,346.9z"/>
		<path id="XMLID_62_" class="st3" d="M310,339.7c-1.1-1.5-0.7-3.7,0.9-4.7c1.6-1.1,3.8-0.7,4.9,0.8c1.1,1.5,0.7,3.7-0.9,4.7
			C313.2,341.6,311.1,341.2,310,339.7z"/>
		<path id="XMLID_61_" class="st3" d="M322.3,330.5c-1.3-1.4-1.3-3.5,0.1-4.8c1.4-1.3,3.6-1.2,4.9,0.1c1.3,1.4,1.3,3.5-0.1,4.8
			C325.9,331.9,323.7,331.9,322.3,330.5z"/>
		<path id="XMLID_60_" class="st3" d="M333.1,319.7c-1.5-1.1-1.8-3.3-0.6-4.8c1.2-1.5,3.4-1.8,4.9-0.6s1.8,3.3,0.6,4.8
			S334.7,320.8,333.1,319.7z"/>
		<path id="XMLID_59_" class="st3" d="M342.1,307.3c-1.7-0.9-2.3-3-1.4-4.6c0.9-1.6,3.1-2.2,4.7-1.3c1.7,0.9,2.3,3,1.4,4.6
			C345.9,307.6,343.8,308.2,342.1,307.3z"/>
		<path id="XMLID_58_" class="st3" d="M349.1,293.8c-1.8-0.6-2.7-2.6-2.1-4.4c0.7-1.8,2.7-2.7,4.5-2c1.8,0.6,2.7,2.6,2.1,4.4
			C352.9,293.5,350.9,294.4,349.1,293.8z"/>
		<path id="XMLID_57_" class="st3" d="M353.8,279.4c-1.9-0.4-3.1-2.2-2.7-4c0.4-1.8,2.2-3,4.1-2.7c1.9,0.4,3.1,2.2,2.7,4
			C357.5,278.6,355.7,279.8,353.8,279.4z"/>
		<path id="XMLID_56_" class="st3" d="M356.3,264.5c-1.9-0.1-3.4-1.7-3.3-3.5c0.1-1.9,1.7-3.3,3.6-3.2c1.9,0.1,3.4,1.7,3.3,3.5
			C359.8,263.1,358.2,264.6,356.3,264.5z"/>
		<path id="XMLID_55_" class="st3" d="M356.4,249.4c-1.9,0.2-3.6-1.2-3.8-3c-0.2-1.9,1.2-3.5,3.1-3.7c1.9-0.2,3.6,1.2,3.8,3
			S358.3,249.2,356.4,249.4z"/>
		<path id="XMLID_54_" class="st3" d="M354.1,234.4c-1.9,0.5-3.8-0.6-4.3-2.4c-0.5-1.8,0.6-3.7,2.5-4.1c1.9-0.5,3.8,0.6,4.3,2.4
			C357.1,232.1,355.9,233.9,354.1,234.4z"/>
		<path id="XMLID_53_" class="st3" d="M349.5,220c-1.8,0.7-3.8,0-4.6-1.8c-0.8-1.7,0-3.7,1.8-4.5c1.8-0.7,3.8,0,4.6,1.8
			C352.1,217.2,351.3,219.2,349.5,220z"/>
		<path id="XMLID_52_" class="st3" d="M342.7,206.3c-1.6,1-3.8,0.5-4.8-1.1c-1-1.6-0.5-3.7,1.1-4.7c1.6-1,3.8-0.5,4.8,1.1
			C344.8,203.2,344.4,205.3,342.7,206.3z"/>
		<path id="XMLID_51_" class="st3" d="M333.9,193.9c-1.5,1.2-3.7,1.1-4.9-0.3c-1.3-1.4-1.1-3.6,0.3-4.8c1.5-1.2,3.7-1.1,4.9,0.3
			C335.5,190.5,335.4,192.7,333.9,193.9z"/>
		<path id="XMLID_50_" class="st3" d="M323.2,182.9c-1.2,1.4-3.4,1.6-4.9,0.4c-1.5-1.2-1.7-3.4-0.4-4.8c1.2-1.4,3.4-1.6,4.9-0.4
			C324.3,179.3,324.5,181.5,323.2,182.9z"/>
		<path id="XMLID_49_" class="st3" d="M311,173.6c-1,1.6-3.2,2.1-4.8,1.1c-1.6-1-2.2-3.1-1.2-4.7s3.2-2.1,4.8-1.1
			C311.5,169.9,312,172,311,173.6z"/>
		<path id="XMLID_48_" class="st3" d="M297.4,166.2c-0.7,1.7-2.8,2.5-4.6,1.8c-1.8-0.7-2.6-2.7-1.9-4.4c0.7-1.7,2.8-2.5,4.6-1.8
			C297.3,162.5,298.1,164.5,297.4,166.2z"/>
		<path id="XMLID_47_" class="st3" d="M282.8,160.9c-0.5,1.8-2.4,2.9-4.2,2.5c-1.9-0.5-3-2.3-2.5-4.1c0.5-1.8,2.4-2.9,4.2-2.5
			C282.2,157.3,283.3,159.1,282.8,160.9z"/>
		<path id="XMLID_46_" class="st3" d="M267.6,157.9c-0.2,1.9-1.9,3.2-3.8,3.1c-1.9-0.2-3.3-1.8-3.2-3.7c0.2-1.9,1.9-3.2,3.8-3.1
			C266.4,154.4,267.8,156,267.6,157.9z"/>
		<path id="XMLID_45_" class="st3" d="M252.1,157.1c0.1,1.9-1.4,3.5-3.3,3.6c-1.9,0.1-3.6-1.3-3.7-3.2c-0.1-1.9,1.4-3.5,3.3-3.6
			C250.3,153.8,252,155.2,252.1,157.1z"/>
		<path id="XMLID_44_" class="st3" d="M236.6,158.6c0.4,1.8-0.8,3.6-2.7,4c-1.9,0.4-3.7-0.8-4.1-2.6c-0.4-1.8,0.8-3.6,2.7-4
			C234.4,155.6,236.2,156.8,236.6,158.6z"/>
		<path id="XMLID_43_" class="st3" d="M221.6,162.4c0.7,1.8-0.2,3.7-2,4.4s-3.8-0.2-4.5-2s0.2-3.7,2-4.4
			C218.9,159.7,220.9,160.6,221.6,162.4z"/>
		<path id="XMLID_42_" class="st3" d="M207.3,168.3c1,1.6,0.4,3.7-1.3,4.6c-1.7,0.9-3.8,0.4-4.8-1.3c-1-1.6-0.4-3.7,1.3-4.6
			C204.2,166.1,206.3,166.7,207.3,168.3z"/>
		<path id="XMLID_41_" class="st3" d="M194.1,176.3c1.2,1.5,0.9,3.6-0.6,4.8c-1.5,1.2-3.7,0.9-4.9-0.6c-1.2-1.5-0.9-3.6,0.6-4.8
			C190.7,174.6,192.9,174.9,194.1,176.3z"/>
		<path id="XMLID_40_" class="st3" d="M182.3,186.2c1.4,1.3,1.5,3.4,0.2,4.8c-1.3,1.4-3.5,1.5-4.9,0.2s-1.5-3.4-0.2-4.8
			C178.7,185,180.9,184.9,182.3,186.2z"/>
		<path id="XMLID_39_" class="st3" d="M172.2,197.7c1.6,1.1,2,3.2,0.9,4.7c-1.1,1.6-3.3,2-4.8,0.9c-1.6-1.1-2-3.2-0.9-4.7
			C168.4,197,170.6,196.6,172.2,197.7z"/>
		<path id="XMLID_38_" class="st3" d="M164,210.5c1.7,0.8,2.5,2.8,1.7,4.5c-0.8,1.7-2.9,2.4-4.6,1.6c-1.7-0.8-2.5-2.8-1.7-4.5
			S162.3,209.7,164,210.5z"/>
		<path id="XMLID_37_" class="st3" d="M157.9,224.4c1.8,0.5,2.9,2.4,2.3,4.2c-0.6,1.8-2.5,2.8-4.3,2.3c-1.8-0.5-2.9-2.4-2.3-4.2
			C154.1,224.9,156.1,223.9,157.9,224.4z"/>
		<path id="XMLID_36_" class="st3" d="M154,239.1c1.9,0.3,3.2,2,3,3.8c-0.3,1.9-2,3.2-3.9,2.9c-1.9-0.3-3.2-2-3-3.8
			C150.4,240.1,152.1,238.8,154,239.1z"/>
		
			<ellipse id="XMLID_35_" transform="matrix(-1.372336e-002 -0.9999 0.9999 -1.372336e-002 -102.8335 413.5738)" class="st3" cx="152.6" cy="257.5" rx="3.4" ry="3.5"/>
		<path id="XMLID_34_" class="st3" d="M153.3,269.2c1.9-0.3,3.7,0.9,4,2.8c0.3,1.8-1,3.6-2.9,3.9c-1.9,0.3-3.7-0.9-4-2.8
			C150.2,271.3,151.4,269.5,153.3,269.2z"/>
		<path id="XMLID_33_" class="st3" d="M156.5,284c1.8-0.6,3.8,0.4,4.4,2.2c0.6,1.8-0.4,3.7-2.2,4.3c-1.8,0.6-3.8-0.4-4.4-2.2
			C153.7,286.5,154.7,284.6,156.5,284z"/>
		<path id="XMLID_32_" class="st3" d="M162,298.2c1.7-0.9,3.8-0.2,4.7,1.5c0.9,1.7,0.2,3.7-1.5,4.6c-1.7,0.9-3.8,0.2-4.7-1.5
			C159.6,301.1,160.3,299,162,298.2z"/>
		<path id="XMLID_31_" class="st3" d="M169.6,311.3c1.6-1.1,3.7-0.7,4.9,0.8c1.1,1.5,0.8,3.6-0.8,4.7c-1.6,1.1-3.7,0.7-4.9-0.8
			C167.7,314.6,168,312.4,169.6,311.3z"/>
		<path id="XMLID_30_" class="st3" d="M179.2,323.3c1.4-1.3,3.6-1.3,4.9,0c1.3,1.3,1.3,3.5,0,4.8c-1.4,1.3-3.6,1.3-4.9,0
			S177.8,324.6,179.2,323.3z"/>
		<path id="XMLID_29_" class="st3" d="M190.5,333.6c1.2-1.5,3.3-1.8,4.9-0.7c1.5,1.1,1.9,3.3,0.7,4.8c-1.2,1.5-3.3,1.8-4.9,0.7
			C189.6,337.2,189.3,335.1,190.5,333.6z"/>
		<path id="XMLID_28_" class="st3" d="M203.3,342.2c0.9-1.7,3-2.3,4.7-1.4c1.7,0.9,2.3,2.9,1.4,4.6c-0.9,1.7-3,2.3-4.7,1.4
			S202.4,343.8,203.3,342.2z"/>
		<path id="XMLID_27_" class="st3" d="M217.3,348.8c0.6-1.8,2.6-2.7,4.4-2.1c1.8,0.6,2.8,2.6,2.1,4.3c-0.6,1.8-2.6,2.7-4.4,2.1
			C217.6,352.5,216.6,350.5,217.3,348.8z"/>
		<path id="XMLID_26_" class="st3" d="M232.1,353.2c0.4-1.8,2.2-3.1,4.1-2.7c1.9,0.3,3.1,2.1,2.8,4c-0.4,1.8-2.2,3.1-4.1,2.7
			C233,356.8,231.8,355,232.1,353.2z"/>
	</g>
	<text id="XMLID_25_" transform="matrix(1.0281 0 0 1 162.5002 266.8797)" class="st4 st5 st6">Quitanda</text>
	<g id="XMLID_93_">
		<path id="XMLID_24_" class="st7" d="M296.3,316.5c1.2-0.9,6.6-2.7,7.7-2.4c0.6,0.2-3,5.7-4.3,6.6c-1.2,0.9-3.8,1.4-4.8,0.2
			C294,319.8,295.1,317.4,296.3,316.5z"/>
		<path id="XMLID_23_" class="st7" d="M288.9,319.6c0.4-1.2,3.4-5,4.3-5.2c0.5-0.1,0.6,5.5,0.2,6.7s-2.1,2.7-3.3,2.3
			C288.9,323,288.5,320.8,288.9,319.6z"/>
		<path id="XMLID_22_" class="st7" d="M294.7,322.4c1.3,0,6,1.4,6.5,2.1c0.3,0.4-5,2.5-6.3,2.5c-1.3,0-3.4-0.9-3.4-2.2
			C291.4,323.6,293.4,322.5,294.7,322.4z"/>
		<path id="XMLID_21_" class="st7" d="M283.1,324c0.4-1.2,3.4-5,4.3-5.2c0.5-0.1,0.6,5.5,0.2,6.7c-0.4,1.2-2.1,2.7-3.3,2.3
			C283,327.4,282.7,325.2,283.1,324z"/>
		<path id="XMLID_20_" class="st7" d="M288.7,326.6c1.3,0,6,1.4,6.5,2.1c0.3,0.4-5,2.5-6.3,2.5c-1.3,0-3.4-0.9-3.4-2.2
			C285.4,327.7,287.4,326.6,288.7,326.6z"/>
		<path id="XMLID_19_" class="st7" d="M277,328.9c0.4-1.2,3.4-5,4.3-5.2c0.5-0.1,0.6,5.5,0.2,6.7c-0.4,1.2-2.1,2.7-3.3,2.3
			S276.6,330.1,277,328.9z"/>
		<path id="XMLID_18_" class="st7" d="M282.4,331.3c1.3,0,6,1.4,6.5,2.1c0.3,0.4-5,2.5-6.3,2.5c-1.3,0-3.4-0.9-3.4-2.2
			C279.1,332.5,281.1,331.4,282.4,331.3z"/>
		<path id="XMLID_17_" class="st7" d="M271.7,333.4c0.4-1.1,3.1-4.6,3.9-4.8c0.5-0.1,0.6,5,0.2,6.1c-0.4,1.1-1.9,2.5-3,2.2
			C271.7,336.5,271.3,334.5,271.7,333.4z"/>
		<path id="XMLID_16_" class="st7" d="M276.7,335.6c1.2,0,5.5,1.3,6,1.9c0.3,0.4-4.6,2.3-5.8,2.3c-1.2,0-3.1-0.8-3.1-2
			C273.7,336.6,275.5,335.6,276.7,335.6z"/>
		<polygon id="XMLID_15_" class="st8" points="295.7,321 266.7,342.3 295.1,320.3 		"/>
	</g>
	<g id="XMLID_82_">
		<path id="XMLID_14_" class="st7" d="M214,318.7c-1.1-1-3.8-5.9-3.7-7c0.1-0.6,6.3,2,7.4,3c1.1,1,2,3.5,1,4.6
			C217.7,320.3,215.1,319.7,214,318.7z"/>
		<path id="XMLID_13_" class="st7" d="M218.3,325.2c-1.3-0.2-5.6-2.4-6-3.2c-0.2-0.5,5.4-1.5,6.7-1.3c1.3,0.2,3.1,1.5,2.9,2.8
			C221.8,324.7,219.6,325.4,218.3,325.2z"/>
		<path id="XMLID_12_" class="st7" d="M220.3,319.2c-0.3-1.2,0.4-5.9,1-6.6c0.4-0.4,3.4,4.4,3.6,5.7c0.3,1.2-0.4,3.4-1.7,3.6
			C222,322.2,220.5,320.5,220.3,319.2z"/>
		<path id="XMLID_11_" class="st7" d="M223.8,330.1c-1.3-0.2-5.6-2.4-6-3.2c-0.2-0.5,5.4-1.5,6.7-1.3c1.3,0.2,3.1,1.5,2.9,2.8
			C227.2,329.6,225.1,330.3,223.8,330.1z"/>
		<path id="XMLID_10_" class="st7" d="M225.5,324.3c-0.3-1.2,0.4-5.9,1-6.6c0.4-0.4,3.4,4.4,3.6,5.7c0.3,1.2-0.4,3.4-1.7,3.6
			C227.2,327.3,225.8,325.6,225.5,324.3z"/>
		<path id="XMLID_9_" class="st7" d="M229.8,335.1c-1.3-0.2-5.6-2.4-6-3.2c-0.2-0.5,5.4-1.5,6.7-1.3c1.3,0.2,3.1,1.5,2.9,2.8
			C233.3,334.6,231.1,335.3,229.8,335.1z"/>
		<path id="XMLID_8_" class="st7" d="M231.4,329.5c-0.3-1.2,0.4-5.9,1-6.6c0.4-0.4,3.4,4.4,3.6,5.7c0.3,1.2-0.4,3.4-1.7,3.6
			C233.1,332.5,231.6,330.8,231.4,329.5z"/>
		<path id="XMLID_7_" class="st7" d="M235.2,339.4c-1.2-0.2-5.1-2.2-5.5-3c-0.2-0.4,5-1.4,6.2-1.2c1.2,0.2,2.9,1.4,2.7,2.6
			C238.4,339,236.4,339.6,235.2,339.4z"/>
		<path id="XMLID_6_" class="st7" d="M236.6,334.3c-0.2-1.1,0.4-5.5,0.9-6.1c0.3-0.3,3.1,4.1,3.3,5.2c0.2,1.1-0.3,3.1-1.5,3.3
			C238.2,337,236.9,335.4,236.6,334.3z"/>
		<polygon id="XMLID_5_" class="st8" points="218.7,318.5 245.1,342.7 218,319.2 		"/>
	</g>
	<g id="XMLID_78_">
		<path id="XMLID_80_" class="st9" d="M241.4,174.2c-1.9,1.5-3.2,3.3-4.1,5.4c-1.1,2.7-1.4,5.5-0.7,8.3c0.6,2.7,1.9,4.9,4.2,6.6
			c0.5,0.4,1.1,0.6,1.7,0.9c0.3,0.1,0.5,0.3,0.6,0.5c0.5,0.9,0.6,1.9,0.6,3c0,1.6-0.3,3.2-0.6,4.8c-0.1,0.2-0.6,2.4-0.8,4.3l0,0
			c0,1,0,1.9,0,2.9c0,2.5,0,5.1,0,7.6c0,2.4,0,4.7,0,7.1c0,1.6,0,3.3,0,4.9c0,0.4,0.2,0.9,0.4,1.3c0.7,1.1,2.1,1.3,3.3,1
			c1.1-0.3,1.8-1.4,1.8-2.6c0-2.9,0-5.9,0-8.8c0-2.8,0-5.6,0-8.4c0-1.5,0-3.3-0.1-4.6c-0.1-0.9-0.6-3.8-0.8-5.4l0,0
			c-0.2-1.1-0.4-2.2-0.5-3.2c-0.1-1.2,0-2.4,0.4-3.5c0.1-0.3,0.4-0.7,0.7-0.8c1.6-0.6,2.8-1.7,3.8-3c1.4-1.8,2.2-3.9,2.4-6.2
			c0.3-2.7-0.2-5.3-1.5-7.7c-0.3-0.6-0.7-1.1-1.1-1.6C250.6,176.6,246.5,170.2,241.4,174.2z"/>
		<path id="XMLID_3_" class="st1" d="M239.7,182.7c0,1,0,1.9,0,2.9c0.1,1.6,0.7,3.1,1.4,4.5c0.4,0.8,0.8,1.6,1.2,2.4
			c0,0-0.1,0-0.1,0.1c-1.8-1.4-3.1-3.2-3.7-5.4c-0.6-2.5,0-4.8,1.1-7c0,0,0.1,0,0.1,0C239.7,180.9,239.7,181.8,239.7,182.7z"/>
	</g>
	<g id="XMLID_76_">
		<path id="XMLID_2_" class="st9" d="M265.5,230.3c0.1-2,0-3.9,0-5.9c0-5.5,0-16.3,0-16.9c-0.1-0.6-0.6-3.2-0.8-4.4
			c-0.7-3.4,0-6.4,2.3-9c0.6-0.6,1.2-1.2,1.6-1.9c0.8-1.2,1-2.6,0.8-4c-0.3-2.7-0.7-5.4-1-8.1c-0.2-1.4-0.4-2.9-0.6-4.3
			c0-0.1-0.2-0.2-0.3-0.3c-0.3-0.1-0.7-0.1-1.1-0.1c0.2,5.2,0.3,5.5,0.5,10.7c-0.6,0-1.2,0-1.8,0c0-5.1,0-5.4,0-10.5
			c-0.5,0-0.9,0-1.4,0c0,5.1,0,5.4,0,10.5c-0.6,0-1-0.1-1.5-0.1c0-5,0-5.3,0-10.4c-0.6,0-1,0-1.4,0c0,5,0,5.3,0,10.3
			c-0.6,0-1.2,0-1.7,0c0-0.4,0.2-3.7,0.3-7.2c0-0.9,0.1-1.9,0.1-2.8c0-0.2,0-0.3-0.3-0.3c-0.4,0-0.8,0-1.2,0c0,0,0,0-0.1,0.1
			c0,0.1,0,0.2,0,0.2c-0.2,1.6-0.4,3.2-0.6,4.8c-0.3,2.5-0.5,5-0.9,7.4c-0.3,2.2,0.2,4.1,1.9,5.8c2.5,2.5,3.1,5.6,2.6,9
			c-0.1,0.3-0.7,4.4-0.7,5.6c0,0,0,0,0,0c0,0,0,0.1,0,0.1c0,0,0,0.1,0,0.1c0,3.1,0,6.1,0,9.2c0,4.1,0,8.3,0,12.4
			c0,1.3,1.1,2.4,2.5,2.5C264.2,232.6,265.5,231.6,265.5,230.3z"/>
	</g>
	<text id="XMLID_1_" transform="matrix(1.0281 0 0 1 178.1124 283.8348)" class="st3 st10 st11">produtos de qualidade</text>
</g>
</svg>
